<?xml version="1.0" encoding="UTF-8"?>
<svg width="137px" height="137px" viewBox="0 0 137 137" version="1.1" xmlns="http://www.w3.org/2000/svg" xmlns:xlink="http://www.w3.org/1999/xlink">
    <!-- Generator: Sketch 52.4 (67378) - http://www.bohemiancoding.com/sketch -->
    <title>Group 2</title>
    <desc>Created with Sketch.</desc>
    <g id="Page-1" stroke="none" stroke-width="1" fill="none" fill-rule="evenodd">
        <g id="Artboard-Copy-2" transform="translate(-78.000000, -72.000000)">
            <g id="Group-2" transform="translate(78.000000, 72.000000)">
                <circle id="Oval-1-Copy-59" fill="#5F8FF8" cx="68.5" cy="68.5" r="68.5"></circle>
                <g id="Group" transform="translate(42.000000, 40.000000)" fill-rule="nonzero" stroke-width="6">
                    <path d="M8,-1.05113317e-13 L44.4373644,-6.03961325e-14 C48.8556424,-5.72835379e-14 52.4373644,3.581722 52.4373644,8 C52.4373644,9.80592832 51.8263311,11.5587286 50.7036559,12.9732878 L18.9573653,52.9732878 C17.4397948,54.885411 15.1322284,56 12.6910738,56 L8,56 C3.581722,56 -1.16326963e-13,52.418278 -1.20792265e-13,48 L-1.22568622e-13,8 C-1.23109705e-13,3.581722 3.581722,-1.12875213e-13 8,-1.13686838e-13 Z" id="Path-10" stroke="#CCF1FF" fill-opacity="0.5" fill="#CCF1FF"></path>
                    <path d="M1.13686838e-13,48 L1.11910481e-13,8 C1.11369398e-13,3.581722 3.581722,8.11624501e-16 8,0 L12.6910738,1.77635684e-15 C15.1322284,3.49610482e-15 17.4397948,1.11458899 18.9573653,3.02671224 L50.7036559,43.0267122 C53.4503269,46.4874895 52.8714294,51.5196205 49.4106522,54.2662915 C47.996093,55.3889666 46.2432928,56 44.4373644,56 L8,56 C3.581722,56 1.16004278e-13,52.418278 1.15463195e-13,48 Z" id="Path-10" stroke="#F5F9FE"></path>
                </g>
            </g>
        </g>
    </g>
</svg>