<?xml version="1.0" encoding="UTF-8"?>
<svg width="347px" height="134px" viewBox="0 0 347 134" version="1.1" xmlns="http://www.w3.org/2000/svg" xmlns:xlink="http://www.w3.org/1999/xlink">
    <!-- Generator: Sketch 52.6 (67491) - http://www.bohemiancoding.com/sketch -->
    <title>banner</title>
    <desc>Created with Sketch.</desc>
    <defs>
        <linearGradient x1="-15.3899853%" y1="-16.7549022%" x2="115.647617%" y2="118.813645%" id="linearGradient-1">
            <stop stop-color="#4A96FF" offset="0%"></stop>
            <stop stop-color="#2B41C2" offset="100%"></stop>
        </linearGradient>
    </defs>
    <g id="banner" stroke="none" stroke-width="1" fill="none" fill-rule="evenodd">
        <g id="Group-9">
            <path d="M60,0 L347,0 L347,74 C347,107.137085 320.137085,134 287,134 L0,134 L0,60 C-4.05812251e-15,26.862915 26.862915,6.08718376e-15 60,0 Z" id="Rectangle-Copy-3" fill="url(#linearGradient-1)"></path>
            <g id="Group-8-Copy" transform="translate(46.000000, 37.000000)" fill-rule="nonzero">
                <path d="M8,8.57352027e-15 L44.4373644,5.32907052e-14 C48.8556424,5.64032999e-14 52.4373644,3.581722 52.4373644,8 C52.4373644,9.80592832 51.8263311,11.5587286 50.7036559,12.9732878 L18.9573653,52.9732878 C17.4397948,54.885411 15.1322284,56 12.6910738,56 L8,56 C3.581722,56 -2.64012519e-15,52.418278 -7.10542736e-15,48 L-8.8817842e-15,8 C-9.4228672e-15,3.581722 3.581722,8.11624501e-16 8,0 Z" id="Path-10-Copy-3" fill-opacity="0.500396286" fill="#1AFFFA"></path>
                <path d="M0,48 L-1.77635684e-15,8 C-2.31743984e-15,3.581722 3.581722,8.11624501e-16 8,0 L12.6910738,1.77635684e-15 C15.1322284,3.49610482e-15 17.4397948,1.11458899 18.9573653,3.02671224 L50.7036559,43.0267122 C53.4503269,46.4874895 52.8714294,51.5196205 49.4106522,54.2662915 C47.996093,55.3889666 46.2432928,56 44.4373644,56 L8,56 C3.581722,56 2.31743984e-15,52.418278 1.77635684e-15,48 Z" id="Path-10-Copy-4" fill-opacity="0.500396286" fill="#1AFFFA"></path>
                <path d="M16,8 L52.4373644,8 C56.8556424,8 60.4373644,11.581722 60.4373644,16 C60.4373644,17.8059283 59.8263311,19.5587286 58.7036559,20.9732878 L26.9573653,60.9732878 C25.4397948,62.885411 23.1322284,64 20.6910738,64 L16,64 C11.581722,64 8,60.418278 8,56 L8,16 C8,11.581722 11.581722,8 16,8 Z" id="Path-10-Copy-5" stroke="#FFFFFF" stroke-width="2"></path>
                <path d="M8,56 L8,16 C8,11.581722 11.581722,8 16,8 L20.6910738,8 C23.1322284,8 25.4397948,9.11458899 26.9573653,11.0267122 L58.7036559,51.0267122 C61.4503269,54.4874895 60.8714294,59.5196205 57.4106522,62.2662915 C55.996093,63.3889666 54.2432928,64 52.4373644,64 L16,64 C11.581722,64 8,60.418278 8,56 Z" id="Path-10-Copy-6" stroke="#FFFFFF" stroke-width="2"></path>
            </g>
            <path d="M167.669802,103.568764 C150.956046,103.568764 138.25,90.6890028 138.25,74.0691025 L138.25,73.9093821 C138.25,57.2033986 150.956667,44.25 168.148963,44.25 C177.942934,44.25 184.658133,47.1252404 190.716573,53.0904734 L191.218237,53.5844195 L182.428121,63.7199619 L181.860081,63.2045182 C177.279009,59.0476197 173.076723,57.0901444 168.069102,57.0901444 C159.2485,57.0901444 152.607488,64.3768111 152.607488,73.7496618 L152.607488,73.9093821 C152.607488,83.3808082 159.174594,90.7286199 168.069102,90.7286199 C173.589044,90.7286199 177.229101,88.947648 182.258869,84.3751308 L182.790723,83.891628 L191.630324,92.821429 L191.137489,93.3484883 C184.564096,100.378366 177.796027,103.568764 167.669802,103.568764 Z M238.794032,72.5011505 C245.239075,75.3304352 248.346523,79.5340225 248.346523,86.3675689 L248.346523,86.5272893 C248.346523,96.8835962 240.158923,102.610442 226.673158,102.610442 L199.329721,102.610442 L199.329721,45.2083221 L226.034277,45.2083221 C232.550905,45.2083221 237.800595,47.0008992 241.179019,50.3793226 C243.890312,53.0906163 245.231977,56.4028505 245.231977,60.4130131 L245.231977,60.5727335 C245.231977,65.958402 242.953618,69.7598668 238.794032,72.5011505 Z M212.808747,67.8087506 L223.398891,67.8087506 C228.775492,67.8087506 231.51337,66.1020215 231.51337,62.6490979 L231.51337,62.4893776 C231.51337,59.2844976 229.003961,57.4894452 224.197493,57.4894452 L212.808747,57.4894452 L212.808747,67.8087506 Z M212.808747,90.329319 L226.673158,90.329319 C231.938025,90.329319 234.627917,88.5360576 234.627917,85.009946 L234.627917,84.8502257 C234.627917,81.4054229 231.967813,79.5308526 226.273858,79.5308526 L212.808747,79.5308526 L212.808747,90.329319 Z M269.673223,58.0484664 L252.663006,58.0484664 L252.663006,45.2083221 L300.481906,45.2083221 L300.481906,58.0484664 L283.471689,58.0484664 L283.471689,102.610442 L269.673223,102.610442 L269.673223,58.0484664 Z" id="CBT-Copy-4" stroke="#FFFFFF" stroke-width="1.5" stroke-linecap="round" stroke-linejoin="round"></path>
            <text id="CBT" font-family="Gotham-Bold, Gotham" font-size="84" font-weight="bold" letter-spacing="-2.95000005" fill="#E1FDFF">
                <tspan x="128" y="98">CB</tspan>
                <tspan x="244.74" y="98">T</tspan>
            </text>
        </g>
    </g>
</svg>